<svg width="216" height="32" viewBox="0 0 216 32" fill="none" xmlns="http://www.w3.org/2000/svg">
<path d="M2.59123 8.8325C2.83304 8.525 3.15151 8.10875 3.40654 7.81125C4.17032 6.99125 4.26942 6.88375 4.96449 6.2775C5.17063 6.1175 5.41509 5.925 5.65426 5.74375C3.89018 7.15625 3.66554 8.72 5.28427 9.68625C5.28163 9.68625 5.28163 9.68625 5.28163 9.68875C7.54521 10.9788 12.5058 10.7 16.4198 9.0475C20.211 7.4475 21.6103 5.15875 19.7392 3.79875C18.0967 3.5075 16.1384 3.47375 14.0664 3.73625L13.851 3.4L14.0294 2.8425C15.2477 2.73875 16.4053 2.76375 17.4043 2.925C17.6461 2.96375 17.9646 3.03 18.2024 3.0775C18.6623 3.18375 18.912 3.2475 19.212 3.33875C19.5185 3.425 19.7802 3.51125 20.2361 3.67125C20.6827 3.8375 20.8756 3.9125 21.2337 4.08125C21.6348 4.25433 22.0244 4.4501 22.4005 4.6675C25.3817 6.44125 23.5277 9.6775 18.2672 11.895C13.0211 14.105 6.33611 14.4525 3.34047 12.7C3.33915 12.6975 3.33518 12.695 3.32725 12.6925H3.33254C1.69663 11.7125 1.52484 10.29 2.59123 8.8325ZM16.2401 21.2325L16.1978 19.24L14.7007 17.665C9.75461 18.725 4.89313 18.4975 2.18952 16.9913C2.18027 16.9812 2.1578 16.9713 2.14855 16.9613C0.618354 16.07 0.24043 14.92 0.355393 13.67C-0.00271022 15.4987 -0.0317813 16.1587 0.0197538 17.7237C0.0831817 18.7037 0.681782 19.6075 1.88559 20.32L1.89484 20.33C4.77684 22.025 10.7814 22.3925 16.2401 21.2325ZM22.4838 23.5138C15.5028 26.1625 6.76557 26.3188 2.97047 23.8675C3.38032 24.815 3.93798 25.6989 4.62488 26.49C8.10813 28.74 16.1278 28.5963 22.5327 26.165C26.2815 24.7437 28.6469 22.8525 29.2679 21.08L29.4424 20.5462C29.856 19.1938 29.9339 18.0675 30 17.065C29.9247 19.2413 27.2145 21.7162 22.4838 23.5138ZM7.07346 28.615C7.29282 28.8125 7.98259 29.6138 11.4777 30.4988C12.4225 30.6963 14.8011 31.33 19.1948 30.4088L19.2212 30.03L18.8737 29.515C14.7971 30.4275 10.2686 30.1225 7.07346 28.615ZM17.1611 12.8538L20.873 15.515C20.873 15.515 21.6672 16.0562 20.9179 16.4362C20.1713 16.8125 18.2539 17.7337 18.2539 17.7337L16.3604 17.065L15.4103 17.465L17.0858 18.8412L17.099 20.9825L18.0835 20.5688L18.7363 18.76C18.7363 18.76 20.7409 18.03 21.5363 17.755C22.3358 17.4862 22.2288 18.4062 22.2288 18.4062L21.835 22.795L23.1432 22.245L25.2971 16.3237C25.2971 16.3237 26.4388 15.7987 27.2422 15.3375C28.0443 14.8763 28.3192 14.1112 28.3192 14.1112C28.3192 14.1112 27.5369 13.7925 26.6357 14.0487C25.7345 14.3025 24.5597 14.755 24.5597 14.755L18.4654 12.3062L17.1611 12.8538ZM9.30797 4.43375L11.8279 6.3325L12.5164 6.235L11.1447 4.53125C11.1447 4.53125 10.8461 4.17875 11.2478 4.095C11.6522 4.01 12.6749 3.8125 12.6749 3.8125L13.444 4.39375L13.962 4.32125L13.3753 3.43875L13.6845 2.46L13.1837 2.52875L12.5904 3.27375C12.5904 3.27375 11.5491 3.36625 11.1395 3.39875C10.7272 3.42875 10.9042 3.01 10.9042 3.01L11.6944 1L11.002 1.09625L9.17848 3.6075C9.17848 3.6075 8.57063 3.7125 8.1306 3.83125C7.68924 3.94875 7.45667 4.27125 7.45667 4.27125C7.45667 4.27125 7.78042 4.51875 8.23631 4.51C8.69616 4.50125 9.30797 4.43375 9.30797 4.43375ZM21.7623 28.8312L20.1317 28.025L19.7564 28.1488L20.7224 28.9662C20.7224 28.9662 20.9285 29.1325 20.7118 29.2212C20.4951 29.3088 19.9427 29.5238 19.9427 29.5238L19.4868 29.3313L19.2159 29.4237L19.5952 29.8062L19.5582 30.365L19.841 30.2725L20.0524 29.8188C20.0524 29.8188 20.6259 29.6575 20.8545 29.6C21.0818 29.5412 21.0302 29.7938 21.0302 29.7938L20.8148 31L21.1915 30.8762L21.9301 29.2812C21.9301 29.2812 22.2565 29.16 22.4904 29.0487C22.7243 28.9375 22.8168 28.7325 22.8168 28.7325C22.8168 28.7325 22.6093 28.625 22.353 28.6787C22.0953 28.73 21.7623 28.8312 21.7623 28.8312Z" fill="white"/>
<path d="M46.944 12.28V31H41.696V12.28H36.288L36.8 8.344H52.064L51.552 12.28H46.944ZM58.007 17.24C58.327 16.1093 58.8603 15.2133 59.607 14.552C60.3537 13.8907 61.2177 13.56 62.199 13.56C63.2017 13.56 64.1083 13.7627 64.919 14.168L63.799 18.04C63.1377 17.848 62.5723 17.752 62.103 17.752C61.271 17.752 60.5137 18.0613 59.831 18.68C59.1697 19.2987 58.839 20.2053 58.839 21.4V31H53.943V18.936L53.591 14.2L57.303 13.72L57.879 17.24H58.007ZM73.4905 19.352C73.4905 18.648 73.3412 18.136 73.0425 17.816C72.7438 17.4747 72.1678 17.304 71.3145 17.304C70.4612 17.304 69.0532 17.6133 67.0905 18.232L65.7145 15.224C66.4398 14.8187 67.4425 14.4453 68.7225 14.104C70.0238 13.7413 71.2932 13.56 72.5305 13.56C73.7892 13.56 74.8345 13.7093 75.6665 14.008C76.5198 14.3067 77.1278 14.7547 77.4905 15.352C77.8745 15.928 78.1198 16.504 78.2265 17.08C78.3545 17.656 78.4185 18.3813 78.4185 19.256V25.272C78.4185 26.0613 78.4932 26.7013 78.6425 27.192C78.8132 27.6827 79.1652 28.216 79.6985 28.792L76.9145 31.384C76.4238 31.1493 75.9438 30.7973 75.4745 30.328C75.0265 29.8587 74.6958 29.4213 74.4825 29.016H74.3545C73.1172 30.5947 71.5492 31.384 69.6505 31.384C66.5785 31.384 65.0425 29.7947 65.0425 26.616C65.0425 24.9307 65.5225 23.672 66.4825 22.84C67.4638 22.008 68.8718 21.432 70.7065 21.112L73.4905 20.632V19.352ZM69.6825 26.104C69.6825 27.1493 70.2372 27.672 71.3465 27.672C72.1998 27.672 72.9252 27.3733 73.5225 26.776V23.768C72.1572 23.96 71.1758 24.2267 70.5785 24.568C69.9812 24.888 69.6825 25.4 69.6825 26.104ZM89.7608 13.688L94.2408 14.2L90.0168 31H84.2888L79.8407 14.168L84.5768 13.688L87.1048 26.648H87.2968L89.7608 13.688ZM102.985 13.56C105.118 13.56 106.686 14.1467 107.689 15.32C108.521 16.28 109.033 17.88 109.225 20.12C109.289 21.016 109.321 22.136 109.321 23.48L107.049 23.8H100.457C100.457 25.0587 100.691 26.008 101.161 26.648C101.63 27.2667 102.462 27.576 103.657 27.576C104.873 27.576 106.334 27.2667 108.041 26.648L109.033 29.656C107.006 30.808 104.894 31.384 102.697 31.384C97.7258 31.384 95.2405 28.44 95.2405 22.552C95.2405 19.7787 95.8805 17.592 97.1605 15.992C98.4618 14.3707 100.403 13.56 102.985 13.56ZM104.073 18.104C103.859 17.6133 103.379 17.368 102.633 17.368C101.886 17.368 101.353 17.6453 101.033 18.2C100.713 18.7333 100.531 19.544 100.489 20.632H104.393C104.393 19.416 104.286 18.5733 104.073 18.104ZM116.556 25.144C116.556 26.1893 116.62 26.9573 116.748 27.448C116.898 27.9387 117.25 28.5253 117.804 29.208L114.284 31.8C113.26 30.712 112.556 29.7627 112.172 28.952C111.81 28.12 111.628 26.8827 111.628 25.24V7.384L116.556 6.84V25.144ZM126.894 8.344H135.086C138.009 8.344 140.025 9.03733 141.134 10.424C142.094 11.6613 142.574 13.24 142.574 15.16C142.574 17.144 141.987 18.8827 140.814 20.376C140.195 21.1867 139.257 21.8373 137.998 22.328C136.761 22.7973 135.267 23.032 133.518 23.032H132.142V31H126.894V8.344ZM132.142 11.928V19.256H133.87C134.958 19.256 135.737 18.968 136.206 18.392C136.697 17.816 136.942 16.9093 136.942 15.672C136.942 14.4133 136.739 13.4747 136.334 12.856C135.929 12.2373 135.107 11.928 133.87 11.928H132.142ZM152.177 13.56C153.351 13.56 154.375 13.7413 155.249 14.104C156.124 14.4667 156.807 14.936 157.297 15.512C157.809 16.0667 158.215 16.76 158.513 17.592C159.004 18.9573 159.249 20.632 159.249 22.616C159.249 25.6667 158.396 27.9813 156.689 29.56C155.388 30.776 153.596 31.384 151.313 31.384C150.14 31.384 149.116 31.2027 148.241 30.84C147.367 30.4773 146.673 30.0187 146.161 29.464C145.671 28.888 145.265 28.184 144.945 27.352C144.455 26.0293 144.209 24.3547 144.209 22.328C144.209 20.4507 144.583 18.7973 145.329 17.368C146.631 14.8293 148.913 13.56 152.177 13.56ZM154.033 22.552C154.033 20.6107 153.884 19.2667 153.585 18.52C153.287 17.752 152.647 17.368 151.665 17.368C150.705 17.368 150.087 17.7307 149.809 18.456C149.553 19.1813 149.425 20.504 149.425 22.424C149.425 24.344 149.575 25.688 149.873 26.456C150.172 27.2027 150.812 27.576 151.793 27.576C152.775 27.576 153.393 27.224 153.649 26.52C153.905 25.7947 154.033 24.472 154.033 22.552ZM165.82 17.24C166.14 16.1093 166.673 15.2133 167.42 14.552C168.166 13.8907 169.03 13.56 170.012 13.56C171.014 13.56 171.921 13.7627 172.732 14.168L171.612 18.04C170.95 17.848 170.385 17.752 169.916 17.752C169.084 17.752 168.326 18.0613 167.644 18.68C166.982 19.2987 166.652 20.2053 166.652 21.4V31H161.756V18.936L161.404 14.2L165.116 13.72L165.692 17.24H165.82ZM179.639 13.816H183.959L183.383 17.368H179.639V24.696C179.639 25.784 179.788 26.5413 180.087 26.968C180.386 27.3947 180.898 27.608 181.623 27.608C181.922 27.608 182.53 27.5013 183.447 27.288L184.311 30.136C183.906 30.456 183.244 30.744 182.327 31C181.431 31.256 180.61 31.384 179.863 31.384C177.751 31.384 176.364 30.8507 175.703 29.784C175.063 28.696 174.743 26.9253 174.743 24.472V17.368H172.279L172.727 14.168L174.839 13.88L175.031 10.68L179.639 9.304V13.816ZM193.334 19.352C193.334 18.648 193.185 18.136 192.886 17.816C192.588 17.4747 192.012 17.304 191.158 17.304C190.305 17.304 188.897 17.6133 186.934 18.232L185.558 15.224C186.284 14.8187 187.286 14.4453 188.566 14.104C189.868 13.7413 191.137 13.56 192.374 13.56C193.633 13.56 194.678 13.7093 195.51 14.008C196.364 14.3067 196.972 14.7547 197.334 15.352C197.718 15.928 197.964 16.504 198.07 17.08C198.198 17.656 198.262 18.3813 198.262 19.256V25.272C198.262 26.0613 198.337 26.7013 198.486 27.192C198.657 27.6827 199.009 28.216 199.542 28.792L196.758 31.384C196.268 31.1493 195.788 30.7973 195.318 30.328C194.87 29.8587 194.54 29.4213 194.326 29.016H194.198C192.961 30.5947 191.393 31.384 189.494 31.384C186.422 31.384 184.886 29.7947 184.886 26.616C184.886 24.9307 185.366 23.672 186.326 22.84C187.308 22.008 188.716 21.432 190.55 21.112L193.334 20.632V19.352ZM189.526 26.104C189.526 27.1493 190.081 27.672 191.19 27.672C192.044 27.672 192.769 27.3733 193.366 26.776V23.768C192.001 23.96 191.02 24.2267 190.422 24.568C189.825 24.888 189.526 25.4 189.526 26.104ZM206.213 25.144C206.213 26.1893 206.277 26.9573 206.405 27.448C206.554 27.9387 206.906 28.5253 207.461 29.208L203.941 31.8C202.917 30.712 202.213 29.7627 201.829 28.952C201.466 28.12 201.285 26.8827 201.285 25.24V7.384L206.213 6.84V25.144Z" fill="white"/>
<path d="M46.944 12.28V11.28H45.944V12.28H46.944ZM46.944 31V32H47.944V31H46.944ZM41.696 31H40.696V32H41.696V31ZM41.696 12.28H42.696V11.28H41.696V12.28ZM36.288 12.28L35.2964 12.151L35.1495 13.28H36.288V12.28ZM36.8 8.344V7.344H35.9217L35.8084 8.21501L36.8 8.344ZM52.064 8.344L53.0556 8.47299L53.2025 7.344H52.064V8.344ZM51.552 12.28V13.28H52.4303L52.5436 12.409L51.552 12.28ZM45.944 12.28V31H47.944V12.28H45.944ZM46.944 30H41.696V32H46.944V30ZM42.696 31V12.28H40.696V31H42.696ZM41.696 11.28H36.288V13.28H41.696V11.28ZM37.2796 12.409L37.7916 8.47299L35.8084 8.21501L35.2964 12.151L37.2796 12.409ZM36.8 9.344H52.064V7.344H36.8V9.344ZM51.0724 8.21501L50.5604 12.151L52.5436 12.409L53.0556 8.47299L51.0724 8.21501ZM51.552 11.28H46.944V13.28H51.552V11.28ZM58.007 17.24V18.24H58.7633L58.9692 17.5123L58.007 17.24ZM59.607 14.552L60.27 15.3006L60.27 15.3006L59.607 14.552ZM64.919 14.168L65.8796 14.4459L66.111 13.646L65.3662 13.2736L64.919 14.168ZM63.799 18.04L63.5202 19.0003L64.4815 19.2794L64.7596 18.3179L63.799 18.04ZM59.831 18.68L59.1595 17.939L59.1536 17.9443L59.1478 17.9497L59.831 18.68ZM58.839 31V32H59.839V31H58.839ZM53.943 31H52.943V32H53.943V31ZM53.943 18.936H54.943V18.8989L54.9402 18.8619L53.943 18.936ZM53.591 14.2L53.4628 13.2083L52.5236 13.3297L52.5938 14.2741L53.591 14.2ZM57.303 13.72L58.2899 13.5585L58.1337 12.6043L57.1748 12.7283L57.303 13.72ZM57.879 17.24L56.8921 17.4015L57.0293 18.24H57.879V17.24ZM58.9692 17.5123C59.2465 16.5324 59.6905 15.8139 60.27 15.3006L58.944 13.8034C58.0302 14.6128 57.4075 15.6862 57.0448 16.9677L58.9692 17.5123ZM60.27 15.3006C60.8371 14.7983 61.4664 14.56 62.199 14.56V12.56C60.969 12.56 59.8702 12.983 58.944 13.8034L60.27 15.3006ZM62.199 14.56C63.0631 14.56 63.8142 14.7336 64.4718 15.0624L65.3662 13.2736C64.4025 12.7917 63.3402 12.56 62.199 12.56V14.56ZM63.9584 13.8901L62.8384 17.7621L64.7596 18.3179L65.8796 14.4459L63.9584 13.8901ZM64.0778 17.0797C63.364 16.8724 62.6995 16.752 62.103 16.752V18.752C62.4452 18.752 62.9113 18.8236 63.5202 19.0003L64.0778 17.0797ZM62.103 16.752C60.9954 16.752 60.0048 17.173 59.1595 17.939L60.5025 19.421C61.0226 18.9497 61.5466 18.752 62.103 18.752V16.752ZM59.1478 17.9497C58.2255 18.8126 57.839 20.0211 57.839 21.4H59.839C59.839 20.3895 60.1139 19.7847 60.5142 19.4103L59.1478 17.9497ZM57.839 21.4V31H59.839V21.4H57.839ZM58.839 30H53.943V32H58.839V30ZM54.943 31V18.936H52.943V31H54.943ZM54.9402 18.8619L54.5882 14.1259L52.5938 14.2741L52.9458 19.0101L54.9402 18.8619ZM53.7192 15.1917L57.4312 14.7117L57.1748 12.7283L53.4628 13.2083L53.7192 15.1917ZM56.3161 13.8815L56.8921 17.4015L58.8659 17.0785L58.2899 13.5585L56.3161 13.8815ZM57.879 18.24H58.007V16.24H57.879V18.24ZM73.0425 17.816L72.2899 18.4745L72.3005 18.4866L72.3114 18.4983L73.0425 17.816ZM67.0905 18.232L66.1811 18.648L66.5486 19.4513L67.3911 19.1857L67.0905 18.232ZM65.7145 15.224L65.2267 14.3511L64.4214 14.8011L64.8051 15.64L65.7145 15.224ZM68.7225 14.104L68.9802 15.0703L68.991 15.0673L68.7225 14.104ZM75.6665 14.008L75.3286 14.9492L75.3361 14.9519L75.6665 14.008ZM77.4905 15.352L76.6357 15.871L76.6467 15.8891L76.6585 15.9067L77.4905 15.352ZM78.2265 17.08L77.2432 17.2621L77.2465 17.2796L77.2503 17.2969L78.2265 17.08ZM78.6425 27.192L77.6858 27.4832L77.6915 27.502L77.698 27.5205L78.6425 27.192ZM79.6985 28.792L80.3799 29.5239L81.1098 28.8443L80.4323 28.1126L79.6985 28.792ZM76.9145 31.384L76.483 32.2861L77.0975 32.58L77.5959 32.1159L76.9145 31.384ZM75.4745 30.328L74.7511 31.0185L74.7592 31.0269L74.7674 31.0351L75.4745 30.328ZM74.4825 29.016L75.3674 28.5503L75.0862 28.016H74.4825V29.016ZM74.3545 29.016V28.016H73.8677L73.5674 28.3991L74.3545 29.016ZM66.4825 22.84L65.8358 22.0772L65.8276 22.0843L66.4825 22.84ZM70.7065 21.112L70.5366 20.1265L70.5347 20.1269L70.7065 21.112ZM73.4905 20.632L73.6604 21.6175L74.4905 21.4743V20.632H73.4905ZM73.5225 26.776L74.2296 27.4831L74.5225 27.1902V26.776H73.5225ZM73.5225 23.768H74.5225V22.6175L73.3832 22.7777L73.5225 23.768ZM70.5785 24.568L71.0507 25.4495L71.0628 25.443L71.0746 25.4362L70.5785 24.568ZM74.4905 19.352C74.4905 18.5412 74.3241 17.7236 73.7736 17.1337L72.3114 18.4983C72.3582 18.5484 72.4905 18.7548 72.4905 19.352H74.4905ZM73.7951 17.1575C73.1941 16.4707 72.2242 16.304 71.3145 16.304V18.304C71.6819 18.304 71.9363 18.3416 72.1024 18.3908C72.2665 18.4394 72.2996 18.4855 72.2899 18.4745L73.7951 17.1575ZM71.3145 16.304C70.2912 16.304 68.7512 16.66 66.7899 17.2783L67.3911 19.1857C69.3552 18.5666 70.6312 18.304 71.3145 18.304V16.304ZM67.9999 17.816L66.6239 14.808L64.8051 15.64L66.1811 18.648L67.9999 17.816ZM66.2023 16.0969C66.8253 15.7488 67.739 15.4012 68.9802 15.0702L68.4648 13.1378C67.146 13.4895 66.0543 13.8885 65.2267 14.3511L66.2023 16.0969ZM68.991 15.0673C70.2128 14.7268 71.3918 14.56 72.5305 14.56V12.56C71.1945 12.56 69.8348 12.7559 68.454 13.1407L68.991 15.0673ZM72.5305 14.56C73.7188 14.56 74.6404 14.7021 75.3286 14.9492L76.0044 13.0668C75.0286 12.7165 73.8596 12.56 72.5305 12.56V14.56ZM75.3361 14.9519C76.036 15.1968 76.4249 15.5237 76.6357 15.871L78.3453 14.833C77.8308 13.9856 77.0037 13.4165 75.9969 13.0641L75.3361 14.9519ZM76.6585 15.9067C76.9808 16.3902 77.1653 16.8412 77.2432 17.2621L79.2098 16.8979C79.0744 16.1668 78.7682 15.4658 78.3226 14.7973L76.6585 15.9067ZM77.2503 17.2969C77.3569 17.7765 77.4185 18.4229 77.4185 19.256H79.4185C79.4185 18.3398 79.3521 17.5355 79.2027 16.8631L77.2503 17.2969ZM77.4185 19.256V25.272H79.4185V19.256H77.4185ZM77.4185 25.272C77.4185 26.1129 77.4967 26.8617 77.6858 27.4832L79.5992 26.9008C79.4896 26.541 79.4185 26.0098 79.4185 25.272H77.4185ZM77.698 27.5205C77.9311 28.1906 78.3811 28.841 78.9647 29.4714L80.4323 28.1126C79.9493 27.591 79.6953 27.1748 79.587 26.8635L77.698 27.5205ZM79.0171 28.0601L76.2331 30.6521L77.5959 32.1159L80.3799 29.5239L79.0171 28.0601ZM77.346 30.4819C76.9773 30.3055 76.5878 30.0271 76.1816 29.6209L74.7674 31.0351C75.2998 31.5675 75.8704 31.9931 76.483 32.2861L77.346 30.4819ZM76.1979 29.6375C75.7896 29.2098 75.5238 28.8473 75.3674 28.5503L73.5976 29.4817C73.8679 29.9953 74.2634 30.5076 74.7511 31.0185L76.1979 29.6375ZM74.4825 28.016H74.3545V30.016H74.4825V28.016ZM73.5674 28.3991C72.5073 29.7517 71.2224 30.384 69.6505 30.384V32.384C71.876 32.384 73.7271 31.4376 75.1416 29.6329L73.5674 28.3991ZM69.6505 30.384C68.2775 30.384 67.4293 30.0307 66.9136 29.4971C66.3917 28.9571 66.0425 28.0596 66.0425 26.616H64.0425C64.0425 28.3511 64.4613 29.8376 65.4754 30.8869C66.4957 31.9426 67.9515 32.384 69.6505 32.384V30.384ZM66.0425 26.616C66.0425 25.1203 66.4625 24.1806 67.1374 23.5957L65.8276 22.0843C64.5825 23.1634 64.0425 24.741 64.0425 26.616H66.0425ZM67.1292 23.6028C67.9273 22.9261 69.1452 22.3994 70.8783 22.0971L70.5347 20.1269C68.5985 20.4646 67.0004 21.0899 65.8358 22.0772L67.1292 23.6028ZM70.8764 22.0975L73.6604 21.6175L73.3206 19.6465L70.5366 20.1265L70.8764 22.0975ZM74.4905 20.632V19.352H72.4905V20.632H74.4905ZM68.6825 26.104C68.6825 26.7965 68.8691 27.4955 69.4127 28.0078C69.9451 28.5095 70.652 28.672 71.3465 28.672V26.672C70.9317 26.672 70.8065 26.5731 70.7843 26.5522C70.7732 26.5418 70.6825 26.4568 70.6825 26.104H68.6825ZM71.3465 28.672C72.462 28.672 73.4426 28.2701 74.2296 27.4831L72.8154 26.0689C72.4077 26.4766 71.9376 26.672 71.3465 26.672V28.672ZM74.5225 26.776V23.768H72.5225V26.776H74.5225ZM73.3832 22.7777C71.9928 22.9733 70.8527 23.2595 70.0824 23.6998L71.0746 25.4362C71.4989 25.1938 72.3216 24.9467 73.6618 24.7583L73.3832 22.7777ZM70.1063 23.6865C69.6685 23.921 69.2979 24.2506 69.0427 24.6881C68.7887 25.1235 68.6825 25.6083 68.6825 26.104H70.6825C70.6825 25.8957 70.7256 25.7725 70.7703 25.6959C70.8137 25.6214 70.8911 25.535 71.0507 25.4495L70.1063 23.6865ZM89.7608 13.688L89.8743 12.6945L88.9518 12.589L88.7783 13.5012L89.7608 13.688ZM94.2408 14.2L95.2106 14.4438L95.4891 13.3362L94.3543 13.2065L94.2408 14.2ZM90.0168 31V32H90.7964L90.9866 31.2438L90.0168 31ZM84.2888 31L83.3219 31.2555L83.5187 32H84.2888V31ZM79.8407 14.168L79.7399 13.1731L78.5747 13.2912L78.8739 14.4235L79.8407 14.168ZM84.5768 13.688L85.5583 13.4965L85.3836 12.6011L84.4759 12.6931L84.5768 13.688ZM87.1048 26.648L86.1232 26.8395L86.281 27.648H87.1048V26.648ZM87.2968 26.648V27.648H88.1245L88.2792 26.8348L87.2968 26.648ZM89.6472 14.6815L94.1272 15.1935L94.3543 13.2065L89.8743 12.6945L89.6472 14.6815ZM93.2709 13.9562L89.0469 30.7562L90.9866 31.2438L95.2106 14.4438L93.2709 13.9562ZM90.0168 30H84.2888V32H90.0168V30ZM85.2556 30.7445L80.8076 13.9125L78.8739 14.4235L83.3219 31.2555L85.2556 30.7445ZM79.9416 15.1629L84.6776 14.6829L84.4759 12.6931L79.7399 13.1731L79.9416 15.1629ZM83.5952 13.8795L86.1232 26.8395L88.0863 26.4565L85.5583 13.4965L83.5952 13.8795ZM87.1048 27.648H87.2968V25.648H87.1048V27.648ZM88.2792 26.8348L90.7432 13.8748L88.7783 13.5012L86.3143 26.4612L88.2792 26.8348ZM107.689 15.32L106.928 15.9697L106.933 15.9749L107.689 15.32ZM109.225 20.12L110.222 20.0488L110.221 20.0417L110.221 20.0346L109.225 20.12ZM109.321 23.48L109.46 24.4702L110.321 24.349V23.48H109.321ZM107.049 23.8V24.8H107.119L107.188 24.7902L107.049 23.8ZM100.457 23.8V22.8H99.4565V23.8H100.457ZM101.161 26.648L100.354 27.2394L100.359 27.2459L100.364 27.2524L101.161 26.648ZM108.041 26.648L108.99 26.3348L108.668 25.357L107.7 25.7079L108.041 26.648ZM109.033 29.656L109.527 30.5254L110.239 30.1206L109.982 29.3428L109.033 29.656ZM97.1605 15.992L96.3806 15.3661L96.3796 15.3673L97.1605 15.992ZM104.073 18.104L103.155 18.5027L103.159 18.5103L103.162 18.5178L104.073 18.104ZM101.033 18.2L101.89 18.7145L101.894 18.7071L101.899 18.6997L101.033 18.2ZM100.489 20.632L99.4893 20.5928L99.4485 21.632H100.489V20.632ZM104.393 20.632V21.632H105.393V20.632H104.393ZM102.985 14.56C104.942 14.56 106.18 15.0944 106.928 15.9697L108.449 14.6703C107.191 13.199 105.293 12.56 102.985 12.56V14.56ZM106.933 15.9749C107.555 16.6932 108.042 18.0328 108.228 20.2054L110.221 20.0346C110.023 17.7272 109.486 15.8668 108.444 14.6651L106.933 15.9749ZM108.227 20.1912C108.289 21.055 108.321 22.1494 108.321 23.48H110.321C110.321 22.1226 110.288 20.977 110.222 20.0488L108.227 20.1912ZM109.181 22.4898L106.909 22.8098L107.188 24.7902L109.46 24.4702L109.181 22.4898ZM107.049 22.8H100.457V24.8H107.049V22.8ZM99.4565 23.8C99.4565 25.1558 99.7046 26.3536 100.354 27.2394L101.967 26.0566C101.678 25.6624 101.457 24.9615 101.457 23.8H99.4565ZM100.364 27.2524C101.106 28.2314 102.321 28.576 103.657 28.576V26.576C102.602 26.576 102.153 26.302 101.957 26.0436L100.364 27.2524ZM103.657 28.576C105.031 28.576 106.614 28.2288 108.381 27.5881L107.7 25.7079C106.054 26.3045 104.714 26.576 103.657 26.576V28.576ZM107.091 26.9612L108.083 29.9692L109.982 29.3428L108.99 26.3348L107.091 26.9612ZM108.538 28.7866C106.653 29.8584 104.71 30.384 102.697 30.384V32.384C105.078 32.384 107.359 31.7576 109.527 30.5254L108.538 28.7866ZM102.697 30.384C100.414 30.384 98.8691 29.716 97.8686 28.5309C96.8408 27.3134 96.2405 25.3793 96.2405 22.552H94.2405C94.2405 25.6127 94.8829 28.0946 96.3404 29.8211C97.8252 31.58 100.008 32.384 102.697 32.384V30.384ZM96.2405 22.552C96.2405 19.9258 96.8462 17.9857 97.9414 16.6167L96.3796 15.3673C94.9148 17.1983 94.2405 19.6315 94.2405 22.552H96.2405ZM97.9404 16.6179C99.0067 15.2894 100.626 14.56 102.985 14.56V12.56C100.18 12.56 97.917 13.4519 96.3806 15.3661L97.9404 16.6179ZM104.99 17.7053C104.555 16.7051 103.592 16.368 102.633 16.368V18.368C102.905 18.368 103.042 18.4141 103.097 18.4424C103.133 18.4605 103.142 18.4716 103.155 18.5027L104.99 17.7053ZM102.633 16.368C101.599 16.368 100.698 16.7793 100.166 17.7003L101.899 18.6997C102.007 18.5113 102.173 18.368 102.633 18.368V16.368ZM100.175 17.6855C99.726 18.4339 99.5342 19.4459 99.4893 20.5928L101.488 20.6712C101.528 19.6421 101.699 19.0328 101.89 18.7145L100.175 17.6855ZM100.489 21.632H104.393V19.632H100.489V21.632ZM105.393 20.632C105.393 19.4164 105.295 18.376 104.983 17.6902L103.162 18.5178C103.277 18.7707 103.393 19.4156 103.393 20.632H105.393ZM116.748 27.448L115.781 27.7004L115.786 27.7199L115.792 27.7392L116.748 27.448ZM117.804 29.208L118.397 30.0132L119.242 29.3914L118.58 28.5774L117.804 29.208ZM114.284 31.8L113.556 32.4854L114.164 33.1308L114.877 32.6052L114.284 31.8ZM112.172 28.952L111.256 29.3516L111.262 29.3659L111.269 29.3801L112.172 28.952ZM111.628 7.384L111.519 6.39004L110.628 6.48831V7.384H111.628ZM116.556 6.84H117.556V5.72353L116.447 5.84604L116.556 6.84ZM115.556 25.144C115.556 26.2044 115.619 27.0796 115.781 27.7004L117.716 27.1956C117.622 26.8351 117.556 26.1742 117.556 25.144H115.556ZM115.792 27.7392C115.996 28.4117 116.442 29.117 117.028 29.8386L118.58 28.5774C118.057 27.9337 117.799 27.4656 117.705 27.1568L115.792 27.7392ZM117.211 28.4028L113.691 30.9948L114.877 32.6052L118.397 30.0132L117.211 28.4028ZM115.012 31.1146C114.019 30.0592 113.395 29.1982 113.076 28.5239L111.269 29.3801C111.717 30.3272 112.501 31.3648 113.556 32.4854L115.012 31.1146ZM113.089 28.5524C112.809 27.9106 112.628 26.8386 112.628 25.24H110.628C110.628 26.9267 110.81 28.3294 111.256 29.3516L113.089 28.5524ZM112.628 25.24V7.384H110.628V25.24H112.628ZM111.738 8.37796L116.666 7.83396L116.447 5.84604L111.519 6.39004L111.738 8.37796ZM115.556 6.84V25.144H117.556V6.84H115.556ZM126.894 8.344V7.344H125.894V8.344H126.894ZM141.134 10.424L141.924 9.811L141.92 9.80512L141.915 9.7993L141.134 10.424ZM140.814 20.376L140.028 19.7581L140.019 19.7693L140.814 20.376ZM137.998 22.328L138.353 23.263L138.361 23.2597L137.998 22.328ZM132.142 23.032V22.032H131.142V23.032H132.142ZM132.142 31V32H133.142V31H132.142ZM126.894 31H125.894V32H126.894V31ZM132.142 11.928V10.928H131.142V11.928H132.142ZM132.142 19.256H131.142V20.256H132.142V19.256ZM136.206 18.392L135.445 17.7435L135.438 17.7519L135.431 17.7603L136.206 18.392ZM126.894 9.344H135.086V7.344H126.894V9.344ZM135.086 9.344C137.898 9.344 139.528 10.0175 140.353 11.0487L141.915 9.7993C140.521 8.0572 138.119 7.344 135.086 7.344V9.344ZM140.344 11.037C141.139 12.0622 141.574 13.4105 141.574 15.16H143.574C143.574 13.0695 143.049 11.2604 141.924 9.811L140.344 11.037ZM141.574 15.16C141.574 16.9307 141.056 18.4493 140.028 19.7582L141.6 20.9938C142.919 19.316 143.574 17.3573 143.574 15.16H141.574ZM140.019 19.7693C139.542 20.394 138.777 20.9512 137.635 21.3963L138.361 23.2597C139.737 22.7235 140.848 21.9794 141.609 20.9827L140.019 19.7693ZM137.643 21.393C136.549 21.808 135.183 22.032 133.518 22.032V24.032C135.352 24.032 136.972 23.7867 138.353 23.263L137.643 21.393ZM133.518 22.032H132.142V24.032H133.518V22.032ZM131.142 23.032V31H133.142V23.032H131.142ZM132.142 30H126.894V32H132.142V30ZM127.894 31V8.344H125.894V31H127.894ZM131.142 11.928V19.256H133.142V11.928H131.142ZM132.142 20.256H133.87V18.256H132.142V20.256ZM133.87 20.256C135.115 20.256 136.247 19.9252 136.981 19.0237L135.431 17.7603C135.227 18.0108 134.801 18.256 133.87 18.256V20.256ZM136.967 19.0405C137.684 18.1994 137.942 17.0063 137.942 15.672H135.942C135.942 16.8124 135.71 17.4326 135.445 17.7435L136.967 19.0405ZM137.942 15.672C137.942 14.3401 137.734 13.1678 137.17 12.308L135.498 13.404C135.745 13.7816 135.942 14.4866 135.942 15.672H137.942ZM137.17 12.308C136.482 11.2578 135.215 10.928 133.87 10.928V12.928C135 12.928 135.375 13.2169 135.498 13.404L137.17 12.308ZM133.87 10.928H132.142V12.928H133.87V10.928ZM155.249 14.104L154.866 15.0277L154.866 15.0277L155.249 14.104ZM157.297 15.512L156.536 16.1605L156.549 16.1756L156.562 16.1903L157.297 15.512ZM158.513 17.592L157.572 17.9299L157.572 17.9302L158.513 17.592ZM156.689 29.56L156.01 28.8259L156.007 28.8293L156.689 29.56ZM148.241 30.84L147.858 31.7637L147.858 31.7637L148.241 30.84ZM146.161 29.464L145.4 30.1125L145.413 30.1276L145.426 30.1423L146.161 29.464ZM144.945 27.352L144.008 27.6998L144.012 27.711L144.945 27.352ZM145.329 17.368L146.216 17.831L146.219 17.8242L145.329 17.368ZM153.585 18.52L152.653 18.8825L152.657 18.8914L153.585 18.52ZM149.809 18.456L148.875 18.0989L148.871 18.111L148.866 18.1232L149.809 18.456ZM149.873 26.456L148.941 26.8185L148.945 26.8274L149.873 26.456ZM153.649 26.52L154.589 26.8618L154.592 26.8528L153.649 26.52ZM152.177 14.56C153.25 14.56 154.138 14.7259 154.866 15.0277L155.632 13.1803C154.611 12.7568 153.452 12.56 152.177 12.56V14.56ZM154.866 15.0277C155.631 15.3447 156.17 15.7313 156.536 16.1605L158.058 14.8635C157.443 14.1407 156.617 13.5886 155.632 13.1803L154.866 15.0277ZM156.562 16.1903C156.969 16.6311 157.311 17.2027 157.572 17.9299L159.454 17.2541C159.118 16.3173 158.649 15.5022 158.032 14.8337L156.562 16.1903ZM157.572 17.9302C158.012 19.1553 158.249 20.7079 158.249 22.616H160.249C160.249 20.5561 159.995 18.7594 159.454 17.2538L157.572 17.9302ZM158.249 22.616C158.249 25.4795 157.454 27.4908 156.01 28.8259L157.368 30.2941C159.338 28.4719 160.249 25.8539 160.249 22.616H158.249ZM156.007 28.8293C154.938 29.8276 153.416 30.384 151.313 30.384V32.384C153.775 32.384 155.838 31.7244 157.372 30.2907L156.007 28.8293ZM151.313 30.384C150.241 30.384 149.352 30.2181 148.624 29.9163L147.858 31.7637C148.88 32.1872 150.039 32.384 151.313 32.384V30.384ZM148.624 29.9163C147.85 29.5953 147.288 29.2106 146.896 28.7857L145.426 30.1423C146.058 30.8267 146.883 31.3593 147.858 31.7637L148.624 29.9163ZM146.922 28.8155C146.517 28.3394 146.165 27.7378 145.879 26.993L144.012 27.711C144.365 28.6302 144.824 29.4366 145.4 30.1125L146.922 28.8155ZM145.883 27.0042C145.447 25.83 145.209 24.2834 145.209 22.328H143.209C143.209 24.4259 143.462 26.2287 144.008 27.6998L145.883 27.0042ZM145.209 22.328C145.209 20.5854 145.555 19.0956 146.216 17.831L144.443 16.905C143.61 18.499 143.209 20.3159 143.209 22.328H145.209ZM146.219 17.8242C146.788 16.714 147.551 15.9156 148.503 15.386C149.463 14.8521 150.673 14.56 152.177 14.56V12.56C150.417 12.56 148.854 12.9025 147.531 13.638C146.201 14.3778 145.172 15.4833 144.439 16.9118L146.219 17.8242ZM155.033 22.552C155.033 20.6137 154.891 19.0929 154.514 18.1486L152.657 18.8914C152.876 19.4404 153.033 20.6076 153.033 22.552H155.033ZM154.517 18.1576C154.296 17.5896 153.926 17.1166 153.396 16.7985C152.879 16.4883 152.282 16.368 151.665 16.368V18.368C152.03 18.368 152.244 18.4397 152.367 18.5135C152.477 18.5794 152.575 18.6824 152.653 18.8824L154.517 18.1576ZM151.665 16.368C151.066 16.368 150.482 16.4806 149.976 16.7773C149.453 17.0834 149.088 17.5427 148.875 18.0989L150.743 18.8131C150.808 18.644 150.89 18.5593 150.987 18.5027C151.099 18.4367 151.305 18.368 151.665 18.368V16.368ZM148.866 18.1232C148.547 19.0287 148.425 20.5107 148.425 22.424H150.425C150.425 20.4973 150.56 19.3339 150.752 18.7888L148.866 18.1232ZM148.425 22.424C148.425 24.3464 148.568 25.8593 148.941 26.8184L150.805 26.0936C150.581 25.5167 150.425 24.3416 150.425 22.424H148.425ZM148.945 26.8274C149.169 27.3888 149.544 27.8511 150.073 28.1598C150.588 28.4601 151.181 28.576 151.793 28.576V26.576C151.424 26.576 151.206 26.5053 151.081 26.4322C150.97 26.3676 150.876 26.2699 150.802 26.0846L148.945 26.8274ZM151.793 28.576C152.395 28.576 152.981 28.4693 153.488 28.1812C154.015 27.8813 154.385 27.4241 154.589 26.8617L152.709 26.1783C152.658 26.3199 152.59 26.3907 152.499 26.4428C152.387 26.5067 152.173 26.576 151.793 26.576V28.576ZM154.592 26.8528C154.912 25.9473 155.033 24.4653 155.033 22.552H153.033C153.033 24.4787 152.899 25.6421 152.706 26.1872L154.592 26.8528ZM165.82 17.24V18.24H166.576L166.782 17.5123L165.82 17.24ZM167.42 14.552L168.083 15.3006L168.083 15.3006L167.42 14.552ZM172.732 14.168L173.692 14.4459L173.923 13.646L173.179 13.2736L172.732 14.168ZM171.612 18.04L171.333 19.0003L172.294 19.2794L172.572 18.3179L171.612 18.04ZM167.644 18.68L166.972 17.939L166.966 17.9443L166.96 17.9497L167.644 18.68ZM166.652 31V32H167.652V31H166.652ZM161.756 31H160.756V32H161.756V31ZM161.756 18.936H162.756V18.8989L162.753 18.8619L161.756 18.936ZM161.404 14.2L161.275 13.2083L160.336 13.3297L160.406 14.2741L161.404 14.2ZM165.116 13.72L166.102 13.5585L165.946 12.6043L164.987 12.7283L165.116 13.72ZM165.692 17.24L164.705 17.4015L164.842 18.24H165.692V17.24ZM166.782 17.5123C167.059 16.5324 167.503 15.8139 168.083 15.3006L166.756 13.8034C165.843 14.6128 165.22 15.6862 164.857 16.9677L166.782 17.5123ZM168.083 15.3006C168.65 14.7983 169.279 14.56 170.012 14.56V12.56C168.781 12.56 167.683 12.983 166.756 13.8034L168.083 15.3006ZM170.012 14.56C170.876 14.56 171.627 14.7336 172.284 15.0624L173.179 13.2736C172.215 12.7917 171.153 12.56 170.012 12.56V14.56ZM171.771 13.8901L170.651 17.7621L172.572 18.3179L173.692 14.4459L171.771 13.8901ZM171.89 17.0797C171.176 16.8724 170.512 16.752 169.916 16.752V18.752C170.258 18.752 170.724 18.8236 171.333 19.0003L171.89 17.0797ZM169.916 16.752C168.808 16.752 167.817 17.173 166.972 17.939L168.315 19.421C168.835 18.9497 169.359 18.752 169.916 18.752V16.752ZM166.96 17.9497C166.038 18.8126 165.652 20.0211 165.652 21.4H167.652C167.652 20.3895 167.926 19.7847 168.327 19.4103L166.96 17.9497ZM165.652 21.4V31H167.652V21.4H165.652ZM166.652 30H161.756V32H166.652V30ZM162.756 31V18.936H160.756V31H162.756ZM162.753 18.8619L162.401 14.1259L160.406 14.2741L160.758 19.0101L162.753 18.8619ZM161.532 15.1917L165.244 14.7117L164.987 12.7283L161.275 13.2083L161.532 15.1917ZM164.129 13.8815L164.705 17.4015L166.678 17.0785L166.102 13.5585L164.129 13.8815ZM165.692 18.24H165.82V16.24H165.692V18.24ZM179.639 13.816H178.639V14.816H179.639V13.816ZM183.959 13.816L184.946 13.9761L185.134 12.816H183.959V13.816ZM183.383 17.368V18.368H184.234L184.37 17.5281L183.383 17.368ZM179.639 17.368V16.368H178.639V17.368H179.639ZM180.087 26.968L179.268 27.5415L179.268 27.5415L180.087 26.968ZM183.447 27.288L184.404 26.9977L184.132 26.102L183.22 26.314L183.447 27.288ZM184.311 30.136L184.931 30.9209L185.466 30.4983L185.268 29.8457L184.311 30.136ZM182.327 31L182.058 30.0368L182.052 30.0385L182.327 31ZM175.703 29.784L174.841 30.291L174.847 30.301L174.853 30.3109L175.703 29.784ZM174.743 17.368H175.743V16.368H174.743V17.368ZM172.279 17.368L171.289 17.2294L171.129 18.368H172.279V17.368ZM172.727 14.168L172.592 13.1772L171.842 13.2795L171.737 14.0294L172.727 14.168ZM174.839 13.88L174.974 14.8708L175.788 14.7598L175.837 13.9399L174.839 13.88ZM175.031 10.68L174.745 9.72181L174.075 9.92193L174.033 10.6201L175.031 10.68ZM179.639 9.304H180.639V7.96176L179.353 8.34581L179.639 9.304ZM179.639 14.816H183.959V12.816H179.639V14.816ZM182.972 13.6559L182.396 17.2079L184.37 17.5281L184.946 13.9761L182.972 13.6559ZM183.383 16.368H179.639V18.368H183.383V16.368ZM178.639 17.368V24.696H180.639V17.368H178.639ZM178.639 24.696C178.639 25.8076 178.778 26.8424 179.268 27.5415L180.906 26.3945C180.798 26.2402 180.639 25.7604 180.639 24.696H178.639ZM179.268 27.5415C179.821 28.3317 180.71 28.608 181.623 28.608V26.608C181.086 26.608 180.95 26.4576 180.906 26.3945L179.268 27.5415ZM181.623 28.608C182.057 28.608 182.78 28.4699 183.674 28.262L183.22 26.314C182.28 26.5328 181.786 26.608 181.623 26.608V28.608ZM182.49 27.5783L183.354 30.4263L185.268 29.8457L184.404 26.9977L182.49 27.5783ZM183.691 29.3511C183.444 29.5463 182.937 29.7915 182.058 30.0368L182.596 31.9632C183.551 31.6965 184.367 31.3657 184.931 30.9209L183.691 29.3511ZM182.052 30.0385C181.225 30.275 180.497 30.384 179.863 30.384V32.384C180.722 32.384 181.637 32.237 182.602 31.9615L182.052 30.0385ZM179.863 30.384C177.856 30.384 176.933 29.8707 176.553 29.2571L174.853 30.3109C175.795 31.8306 177.646 32.384 179.863 32.384V30.384ZM176.565 29.277C176.067 28.4297 175.743 26.8864 175.743 24.472H173.743C173.743 26.9642 174.059 28.9623 174.841 30.291L176.565 29.277ZM175.743 24.472V17.368H173.743V24.472H175.743ZM174.743 16.368H172.279V18.368H174.743V16.368ZM173.269 17.5066L173.717 14.3066L171.737 14.0294L171.289 17.2294L173.269 17.5066ZM172.862 15.1588L174.974 14.8708L174.704 12.8892L172.592 13.1772L172.862 15.1588ZM175.837 13.9399L176.029 10.7399L174.033 10.6201L173.841 13.8201L175.837 13.9399ZM175.317 11.6382L179.925 10.2622L179.353 8.34581L174.745 9.72181L175.317 11.6382ZM178.639 9.304V13.816H180.639V9.304H178.639ZM192.886 17.816L192.134 18.4745L192.144 18.4866L192.155 18.4983L192.886 17.816ZM186.934 18.232L186.025 18.648L186.392 19.4513L187.235 19.1857L186.934 18.232ZM185.558 15.224L185.07 14.3511L184.265 14.8011L184.649 15.64L185.558 15.224ZM188.566 14.104L188.824 15.0703L188.835 15.0673L188.566 14.104ZM195.51 14.008L195.172 14.9492L195.18 14.9519L195.51 14.008ZM197.334 15.352L196.479 15.871L196.49 15.8891L196.502 15.9067L197.334 15.352ZM198.07 17.08L197.087 17.2621L197.09 17.2796L197.094 17.2969L198.07 17.08ZM198.486 27.192L197.53 27.4832L197.535 27.502L197.542 27.5205L198.486 27.192ZM199.542 28.792L200.224 29.5239L200.954 28.8443L200.276 28.1126L199.542 28.792ZM196.758 31.384L196.327 32.2861L196.941 32.58L197.44 32.1159L196.758 31.384ZM195.318 30.328L194.595 31.0185L194.603 31.0269L194.611 31.0351L195.318 30.328ZM194.326 29.016L195.211 28.5503L194.93 28.016H194.326V29.016ZM194.198 29.016V28.016H193.711L193.411 28.3991L194.198 29.016ZM186.326 22.84L185.68 22.0772L185.671 22.0843L186.326 22.84ZM190.55 21.112L190.38 20.1265L190.378 20.1269L190.55 21.112ZM193.334 20.632L193.504 21.6175L194.334 21.4743V20.632H193.334ZM193.366 26.776L194.073 27.4831L194.366 27.1902V26.776H193.366ZM193.366 23.768H194.366V22.6175L193.227 22.7777L193.366 23.768ZM190.422 24.568L190.894 25.4495L190.907 25.443L190.918 25.4362L190.422 24.568ZM194.334 19.352C194.334 18.5412 194.168 17.7236 193.617 17.1337L192.155 18.4983C192.202 18.5484 192.334 18.7548 192.334 19.352H194.334ZM193.639 17.1575C193.038 16.4707 192.068 16.304 191.158 16.304V18.304C191.526 18.304 191.78 18.3416 191.946 18.3908C192.11 18.4394 192.143 18.4855 192.134 18.4745L193.639 17.1575ZM191.158 16.304C190.135 16.304 188.595 16.66 186.634 17.2783L187.235 19.1857C189.199 18.5666 190.475 18.304 191.158 18.304V16.304ZM187.844 17.816L186.468 14.808L184.649 15.64L186.025 18.648L187.844 17.816ZM186.046 16.0969C186.669 15.7488 187.583 15.4012 188.824 15.0702L188.309 13.1378C186.99 13.4895 185.898 13.8885 185.07 14.3511L186.046 16.0969ZM188.835 15.0673C190.057 14.7268 191.236 14.56 192.374 14.56V12.56C191.038 12.56 189.679 12.7559 188.298 13.1407L188.835 15.0673ZM192.374 14.56C193.563 14.56 194.484 14.7021 195.172 14.9492L195.848 13.0668C194.872 12.7165 193.703 12.56 192.374 12.56V14.56ZM195.18 14.9519C195.88 15.1968 196.269 15.5237 196.479 15.871L198.189 14.833C197.675 13.9856 196.847 13.4165 195.841 13.0641L195.18 14.9519ZM196.502 15.9067C196.825 16.3902 197.009 16.8412 197.087 17.2621L199.054 16.8979C198.918 16.1668 198.612 15.4658 198.166 14.7973L196.502 15.9067ZM197.094 17.2969C197.201 17.7765 197.262 18.4229 197.262 19.256H199.262C199.262 18.3398 199.196 17.5355 199.046 16.8631L197.094 17.2969ZM197.262 19.256V25.272H199.262V19.256H197.262ZM197.262 25.272C197.262 26.1129 197.34 26.8617 197.53 27.4832L199.443 26.9008C199.333 26.541 199.262 26.0098 199.262 25.272H197.262ZM197.542 27.5205C197.775 28.1906 198.225 28.841 198.808 29.4714L200.276 28.1126C199.793 27.591 199.539 27.1748 199.431 26.8635L197.542 27.5205ZM198.861 28.0601L196.077 30.6521L197.44 32.1159L200.224 29.5239L198.861 28.0601ZM197.19 30.4819C196.821 30.3055 196.432 30.0271 196.025 29.6209L194.611 31.0351C195.144 31.5675 195.714 31.9931 196.327 32.2861L197.19 30.4819ZM196.042 29.6375C195.633 29.2098 195.368 28.8473 195.211 28.5503L193.441 29.4817C193.712 29.9953 194.107 30.5076 194.595 31.0185L196.042 29.6375ZM194.326 28.016H194.198V30.016H194.326V28.016ZM193.411 28.3991C192.351 29.7517 191.066 30.384 189.494 30.384V32.384C191.72 32.384 193.571 31.4376 194.985 29.6329L193.411 28.3991ZM189.494 30.384C188.121 30.384 187.273 30.0307 186.757 29.4971C186.235 28.9571 185.886 28.0596 185.886 26.616H183.886C183.886 28.3511 184.305 29.8376 185.319 30.8869C186.339 31.9426 187.795 32.384 189.494 32.384V30.384ZM185.886 26.616C185.886 25.1203 186.306 24.1806 186.981 23.5957L185.671 22.0843C184.426 23.1634 183.886 24.741 183.886 26.616H185.886ZM186.973 23.6028C187.771 22.9261 188.989 22.3994 190.722 22.0971L190.378 20.1269C188.442 20.4646 186.844 21.0899 185.68 22.0772L186.973 23.6028ZM190.72 22.0975L193.504 21.6175L193.164 19.6465L190.38 20.1265L190.72 22.0975ZM194.334 20.632V19.352H192.334V20.632H194.334ZM188.526 26.104C188.526 26.7965 188.713 27.4955 189.256 28.0078C189.789 28.5095 190.496 28.672 191.19 28.672V26.672C190.775 26.672 190.65 26.5731 190.628 26.5522C190.617 26.5418 190.526 26.4568 190.526 26.104H188.526ZM191.19 28.672C192.306 28.672 193.286 28.2701 194.073 27.4831L192.659 26.0689C192.251 26.4766 191.781 26.672 191.19 26.672V28.672ZM194.366 26.776V23.768H192.366V26.776H194.366ZM193.227 22.7777C191.837 22.9733 190.696 23.2595 189.926 23.6998L190.918 25.4362C191.343 25.1938 192.165 24.9467 193.506 24.7583L193.227 22.7777ZM189.95 23.6865C189.512 23.921 189.142 24.2506 188.886 24.6881C188.632 25.1235 188.526 25.6083 188.526 26.104H190.526C190.526 25.8957 190.569 25.7725 190.614 25.6959C190.657 25.6214 190.735 25.535 190.894 25.4495L189.95 23.6865ZM206.405 27.448L205.437 27.7004L205.442 27.7199L205.448 27.7392L206.405 27.448ZM207.461 29.208L208.053 30.0132L208.898 29.3914L208.237 28.5774L207.461 29.208ZM203.941 31.8L203.212 32.4854L203.82 33.1308L204.533 32.6052L203.941 31.8ZM201.829 28.952L200.912 29.3516L200.918 29.3659L200.925 29.3801L201.829 28.952ZM201.285 7.384L201.175 6.39004L200.285 6.48831V7.384H201.285ZM206.213 6.84H207.213V5.72353L206.103 5.84604L206.213 6.84ZM205.213 25.144C205.213 26.2044 205.275 27.0796 205.437 27.7004L207.372 27.1956C207.278 26.8351 207.213 26.1742 207.213 25.144H205.213ZM205.448 27.7392C205.653 28.4117 206.098 29.117 206.684 29.8386L208.237 28.5774C207.714 27.9337 207.455 27.4656 207.361 27.1568L205.448 27.7392ZM206.868 28.4028L203.348 30.9948L204.533 32.6052L208.053 30.0132L206.868 28.4028ZM204.669 31.1146C203.675 30.0592 203.052 29.1982 202.732 28.5239L200.925 29.3801C201.373 30.3272 202.158 31.3648 203.212 32.4854L204.669 31.1146ZM202.745 28.5524C202.465 27.9106 202.285 26.8386 202.285 25.24H200.285C200.285 26.9267 200.466 28.3294 200.912 29.3516L202.745 28.5524ZM202.285 25.24V7.384H200.285V25.24H202.285ZM201.394 8.37796L206.322 7.83396L206.103 5.84604L201.175 6.39004L201.394 8.37796ZM205.213 6.84V25.144H207.213V6.84H205.213Z" fill="black"/>
<path d="M46.944 12.28V11.28H45.944V12.28H46.944ZM46.944 31V32H47.944V31H46.944ZM41.696 31H40.696V32H41.696V31ZM41.696 12.28H42.696V11.28H41.696V12.28ZM36.288 12.28L35.2964 12.151L35.1495 13.28H36.288V12.28ZM36.8 8.344V7.344H35.9217L35.8084 8.21501L36.8 8.344ZM52.064 8.344L53.0556 8.47299L53.2025 7.344H52.064V8.344ZM51.552 12.28V13.28H52.4303L52.5436 12.409L51.552 12.28ZM45.944 12.28V31H47.944V12.28H45.944ZM46.944 30H41.696V32H46.944V30ZM42.696 31V12.28H40.696V31H42.696ZM41.696 11.28H36.288V13.28H41.696V11.28ZM37.2796 12.409L37.7916 8.47299L35.8084 8.21501L35.2964 12.151L37.2796 12.409ZM36.8 9.344H52.064V7.344H36.8V9.344ZM51.0724 8.21501L50.5604 12.151L52.5436 12.409L53.0556 8.47299L51.0724 8.21501ZM51.552 11.28H46.944V13.28H51.552V11.28ZM58.007 17.24V18.24H58.7633L58.9692 17.5123L58.007 17.24ZM59.607 14.552L60.27 15.3006L60.27 15.3006L59.607 14.552ZM64.919 14.168L65.8796 14.4459L66.111 13.646L65.3662 13.2736L64.919 14.168ZM63.799 18.04L63.5202 19.0003L64.4815 19.2794L64.7596 18.3179L63.799 18.04ZM59.831 18.68L59.1595 17.939L59.1536 17.9443L59.1478 17.9497L59.831 18.68ZM58.839 31V32H59.839V31H58.839ZM53.943 31H52.943V32H53.943V31ZM53.943 18.936H54.943V18.8989L54.9402 18.8619L53.943 18.936ZM53.591 14.2L53.4628 13.2083L52.5236 13.3297L52.5938 14.2741L53.591 14.2ZM57.303 13.72L58.2899 13.5585L58.1337 12.6043L57.1748 12.7283L57.303 13.72ZM57.879 17.24L56.8921 17.4015L57.0293 18.24H57.879V17.24ZM58.9692 17.5123C59.2465 16.5324 59.6905 15.8139 60.27 15.3006L58.944 13.8034C58.0302 14.6128 57.4075 15.6862 57.0448 16.9677L58.9692 17.5123ZM60.27 15.3006C60.8371 14.7983 61.4664 14.56 62.199 14.56V12.56C60.969 12.56 59.8702 12.983 58.944 13.8034L60.27 15.3006ZM62.199 14.56C63.0631 14.56 63.8142 14.7336 64.4718 15.0624L65.3662 13.2736C64.4025 12.7917 63.3402 12.56 62.199 12.56V14.56ZM63.9584 13.8901L62.8384 17.7621L64.7596 18.3179L65.8796 14.4459L63.9584 13.8901ZM64.0778 17.0797C63.364 16.8724 62.6995 16.752 62.103 16.752V18.752C62.4452 18.752 62.9113 18.8236 63.5202 19.0003L64.0778 17.0797ZM62.103 16.752C60.9954 16.752 60.0048 17.173 59.1595 17.939L60.5025 19.421C61.0226 18.9497 61.5466 18.752 62.103 18.752V16.752ZM59.1478 17.9497C58.2255 18.8126 57.839 20.0211 57.839 21.4H59.839C59.839 20.3895 60.1139 19.7847 60.5142 19.4103L59.1478 17.9497ZM57.839 21.4V31H59.839V21.4H57.839ZM58.839 30H53.943V32H58.839V30ZM54.943 31V18.936H52.943V31H54.943ZM54.9402 18.8619L54.5882 14.1259L52.5938 14.2741L52.9458 19.0101L54.9402 18.8619ZM53.7192 15.1917L57.4312 14.7117L57.1748 12.7283L53.4628 13.2083L53.7192 15.1917ZM56.3161 13.8815L56.8921 17.4015L58.8659 17.0785L58.2899 13.5585L56.3161 13.8815ZM57.879 18.24H58.007V16.24H57.879V18.24ZM73.0425 17.816L72.2899 18.4745L72.3005 18.4866L72.3114 18.4983L73.0425 17.816ZM67.0905 18.232L66.1811 18.648L66.5486 19.4513L67.3911 19.1857L67.0905 18.232ZM65.7145 15.224L65.2267 14.3511L64.4214 14.8011L64.8051 15.64L65.7145 15.224ZM68.7225 14.104L68.9802 15.0703L68.991 15.0673L68.7225 14.104ZM75.6665 14.008L75.3286 14.9492L75.3361 14.9519L75.6665 14.008ZM77.4905 15.352L76.6357 15.871L76.6467 15.8891L76.6585 15.9067L77.4905 15.352ZM78.2265 17.08L77.2432 17.2621L77.2465 17.2796L77.2503 17.2969L78.2265 17.08ZM78.6425 27.192L77.6858 27.4832L77.6915 27.502L77.698 27.5205L78.6425 27.192ZM79.6985 28.792L80.3799 29.5239L81.1098 28.8443L80.4323 28.1126L79.6985 28.792ZM76.9145 31.384L76.483 32.2861L77.0975 32.58L77.5959 32.1159L76.9145 31.384ZM75.4745 30.328L74.7511 31.0185L74.7592 31.0269L74.7674 31.0351L75.4745 30.328ZM74.4825 29.016L75.3674 28.5503L75.0862 28.016H74.4825V29.016ZM74.3545 29.016V28.016H73.8677L73.5674 28.3991L74.3545 29.016ZM66.4825 22.84L65.8358 22.0772L65.8276 22.0843L66.4825 22.84ZM70.7065 21.112L70.5366 20.1265L70.5347 20.1269L70.7065 21.112ZM73.4905 20.632L73.6604 21.6175L74.4905 21.4743V20.632H73.4905ZM73.5225 26.776L74.2296 27.4831L74.5225 27.1902V26.776H73.5225ZM73.5225 23.768H74.5225V22.6175L73.3832 22.7777L73.5225 23.768ZM70.5785 24.568L71.0507 25.4495L71.0628 25.443L71.0746 25.4362L70.5785 24.568ZM74.4905 19.352C74.4905 18.5412 74.3241 17.7236 73.7736 17.1337L72.3114 18.4983C72.3582 18.5484 72.4905 18.7548 72.4905 19.352H74.4905ZM73.7951 17.1575C73.1941 16.4707 72.2242 16.304 71.3145 16.304V18.304C71.6819 18.304 71.9363 18.3416 72.1024 18.3908C72.2665 18.4394 72.2996 18.4855 72.2899 18.4745L73.7951 17.1575ZM71.3145 16.304C70.2912 16.304 68.7512 16.66 66.7899 17.2783L67.3911 19.1857C69.3552 18.5666 70.6312 18.304 71.3145 18.304V16.304ZM67.9999 17.816L66.6239 14.808L64.8051 15.64L66.1811 18.648L67.9999 17.816ZM66.2023 16.0969C66.8253 15.7488 67.739 15.4012 68.9802 15.0702L68.4648 13.1378C67.146 13.4895 66.0543 13.8885 65.2267 14.3511L66.2023 16.0969ZM68.991 15.0673C70.2128 14.7268 71.3918 14.56 72.5305 14.56V12.56C71.1945 12.56 69.8348 12.7559 68.454 13.1407L68.991 15.0673ZM72.5305 14.56C73.7188 14.56 74.6404 14.7021 75.3286 14.9492L76.0044 13.0668C75.0286 12.7165 73.8596 12.56 72.5305 12.56V14.56ZM75.3361 14.9519C76.036 15.1968 76.4249 15.5237 76.6357 15.871L78.3453 14.833C77.8308 13.9856 77.0037 13.4165 75.9969 13.0641L75.3361 14.9519ZM76.6585 15.9067C76.9808 16.3902 77.1653 16.8412 77.2432 17.2621L79.2098 16.8979C79.0744 16.1668 78.7682 15.4658 78.3226 14.7973L76.6585 15.9067ZM77.2503 17.2969C77.3569 17.7765 77.4185 18.4229 77.4185 19.256H79.4185C79.4185 18.3398 79.3521 17.5355 79.2027 16.8631L77.2503 17.2969ZM77.4185 19.256V25.272H79.4185V19.256H77.4185ZM77.4185 25.272C77.4185 26.1129 77.4967 26.8617 77.6858 27.4832L79.5992 26.9008C79.4896 26.541 79.4185 26.0098 79.4185 25.272H77.4185ZM77.698 27.5205C77.9311 28.1906 78.3811 28.841 78.9647 29.4714L80.4323 28.1126C79.9493 27.591 79.6953 27.1748 79.587 26.8635L77.698 27.5205ZM79.0171 28.0601L76.2331 30.6521L77.5959 32.1159L80.3799 29.5239L79.0171 28.0601ZM77.346 30.4819C76.9773 30.3055 76.5878 30.0271 76.1816 29.6209L74.7674 31.0351C75.2998 31.5675 75.8704 31.9931 76.483 32.2861L77.346 30.4819ZM76.1979 29.6375C75.7896 29.2098 75.5238 28.8473 75.3674 28.5503L73.5976 29.4817C73.8679 29.9953 74.2634 30.5076 74.7511 31.0185L76.1979 29.6375ZM74.4825 28.016H74.3545V30.016H74.4825V28.016ZM73.5674 28.3991C72.5073 29.7517 71.2224 30.384 69.6505 30.384V32.384C71.876 32.384 73.7271 31.4376 75.1416 29.6329L73.5674 28.3991ZM69.6505 30.384C68.2775 30.384 67.4293 30.0307 66.9136 29.4971C66.3917 28.9571 66.0425 28.0596 66.0425 26.616H64.0425C64.0425 28.3511 64.4613 29.8376 65.4754 30.8869C66.4957 31.9426 67.9515 32.384 69.6505 32.384V30.384ZM66.0425 26.616C66.0425 25.1203 66.4625 24.1806 67.1374 23.5957L65.8276 22.0843C64.5825 23.1634 64.0425 24.741 64.0425 26.616H66.0425ZM67.1292 23.6028C67.9273 22.9261 69.1452 22.3994 70.8783 22.0971L70.5347 20.1269C68.5985 20.4646 67.0004 21.0899 65.8358 22.0772L67.1292 23.6028ZM70.8764 22.0975L73.6604 21.6175L73.3206 19.6465L70.5366 20.1265L70.8764 22.0975ZM74.4905 20.632V19.352H72.4905V20.632H74.4905ZM68.6825 26.104C68.6825 26.7965 68.8691 27.4955 69.4127 28.0078C69.9451 28.5095 70.652 28.672 71.3465 28.672V26.672C70.9317 26.672 70.8065 26.5731 70.7843 26.5522C70.7732 26.5418 70.6825 26.4568 70.6825 26.104H68.6825ZM71.3465 28.672C72.462 28.672 73.4426 28.2701 74.2296 27.4831L72.8154 26.0689C72.4077 26.4766 71.9376 26.672 71.3465 26.672V28.672ZM74.5225 26.776V23.768H72.5225V26.776H74.5225ZM73.3832 22.7777C71.9928 22.9733 70.8527 23.2595 70.0824 23.6998L71.0746 25.4362C71.4989 25.1938 72.3216 24.9467 73.6618 24.7583L73.3832 22.7777ZM70.1063 23.6865C69.6685 23.921 69.2979 24.2506 69.0427 24.6881C68.7887 25.1235 68.6825 25.6083 68.6825 26.104H70.6825C70.6825 25.8957 70.7256 25.7725 70.7703 25.6959C70.8137 25.6214 70.8911 25.535 71.0507 25.4495L70.1063 23.6865ZM89.7608 13.688L89.8743 12.6945L88.9518 12.589L88.7783 13.5012L89.7608 13.688ZM94.2408 14.2L95.2106 14.4438L95.4891 13.3362L94.3543 13.2065L94.2408 14.2ZM90.0168 31V32H90.7964L90.9866 31.2438L90.0168 31ZM84.2888 31L83.3219 31.2555L83.5187 32H84.2888V31ZM79.8407 14.168L79.7399 13.1731L78.5747 13.2912L78.8739 14.4235L79.8407 14.168ZM84.5768 13.688L85.5583 13.4965L85.3836 12.6011L84.4759 12.6931L84.5768 13.688ZM87.1048 26.648L86.1232 26.8395L86.281 27.648H87.1048V26.648ZM87.2968 26.648V27.648H88.1245L88.2792 26.8348L87.2968 26.648ZM89.6472 14.6815L94.1272 15.1935L94.3543 13.2065L89.8743 12.6945L89.6472 14.6815ZM93.2709 13.9562L89.0469 30.7562L90.9866 31.2438L95.2106 14.4438L93.2709 13.9562ZM90.0168 30H84.2888V32H90.0168V30ZM85.2556 30.7445L80.8076 13.9125L78.8739 14.4235L83.3219 31.2555L85.2556 30.7445ZM79.9416 15.1629L84.6776 14.6829L84.4759 12.6931L79.7399 13.1731L79.9416 15.1629ZM83.5952 13.8795L86.1232 26.8395L88.0863 26.4565L85.5583 13.4965L83.5952 13.8795ZM87.1048 27.648H87.2968V25.648H87.1048V27.648ZM88.2792 26.8348L90.7432 13.8748L88.7783 13.5012L86.3143 26.4612L88.2792 26.8348ZM107.689 15.32L106.928 15.9697L106.933 15.9749L107.689 15.32ZM109.225 20.12L110.222 20.0488L110.221 20.0417L110.221 20.0346L109.225 20.12ZM109.321 23.48L109.46 24.4702L110.321 24.349V23.48H109.321ZM107.049 23.8V24.8H107.119L107.188 24.7902L107.049 23.8ZM100.457 23.8V22.8H99.4565V23.8H100.457ZM101.161 26.648L100.354 27.2394L100.359 27.2459L100.364 27.2524L101.161 26.648ZM108.041 26.648L108.99 26.3348L108.668 25.357L107.7 25.7079L108.041 26.648ZM109.033 29.656L109.527 30.5254L110.239 30.1206L109.982 29.3428L109.033 29.656ZM97.1605 15.992L96.3806 15.3661L96.3796 15.3673L97.1605 15.992ZM104.073 18.104L103.155 18.5027L103.159 18.5103L103.162 18.5178L104.073 18.104ZM101.033 18.2L101.89 18.7145L101.894 18.7071L101.899 18.6997L101.033 18.2ZM100.489 20.632L99.4893 20.5928L99.4485 21.632H100.489V20.632ZM104.393 20.632V21.632H105.393V20.632H104.393ZM102.985 14.56C104.942 14.56 106.18 15.0944 106.928 15.9697L108.449 14.6703C107.191 13.199 105.293 12.56 102.985 12.56V14.56ZM106.933 15.9749C107.555 16.6932 108.042 18.0328 108.228 20.2054L110.221 20.0346C110.023 17.7272 109.486 15.8668 108.444 14.6651L106.933 15.9749ZM108.227 20.1912C108.289 21.055 108.321 22.1494 108.321 23.48H110.321C110.321 22.1226 110.288 20.977 110.222 20.0488L108.227 20.1912ZM109.181 22.4898L106.909 22.8098L107.188 24.7902L109.46 24.4702L109.181 22.4898ZM107.049 22.8H100.457V24.8H107.049V22.8ZM99.4565 23.8C99.4565 25.1558 99.7046 26.3536 100.354 27.2394L101.967 26.0566C101.678 25.6624 101.457 24.9615 101.457 23.8H99.4565ZM100.364 27.2524C101.106 28.2314 102.321 28.576 103.657 28.576V26.576C102.602 26.576 102.153 26.302 101.957 26.0436L100.364 27.2524ZM103.657 28.576C105.031 28.576 106.614 28.2288 108.381 27.5881L107.7 25.7079C106.054 26.3045 104.714 26.576 103.657 26.576V28.576ZM107.091 26.9612L108.083 29.9692L109.982 29.3428L108.99 26.3348L107.091 26.9612ZM108.538 28.7866C106.653 29.8584 104.71 30.384 102.697 30.384V32.384C105.078 32.384 107.359 31.7576 109.527 30.5254L108.538 28.7866ZM102.697 30.384C100.414 30.384 98.8691 29.716 97.8686 28.5309C96.8408 27.3134 96.2405 25.3793 96.2405 22.552H94.2405C94.2405 25.6127 94.8829 28.0946 96.3404 29.8211C97.8252 31.58 100.008 32.384 102.697 32.384V30.384ZM96.2405 22.552C96.2405 19.9258 96.8462 17.9857 97.9414 16.6167L96.3796 15.3673C94.9148 17.1983 94.2405 19.6315 94.2405 22.552H96.2405ZM97.9404 16.6179C99.0067 15.2894 100.626 14.56 102.985 14.56V12.56C100.18 12.56 97.917 13.4519 96.3806 15.3661L97.9404 16.6179ZM104.99 17.7053C104.555 16.7051 103.592 16.368 102.633 16.368V18.368C102.905 18.368 103.042 18.4141 103.097 18.4424C103.133 18.4605 103.142 18.4716 103.155 18.5027L104.99 17.7053ZM102.633 16.368C101.599 16.368 100.698 16.7793 100.166 17.7003L101.899 18.6997C102.007 18.5113 102.173 18.368 102.633 18.368V16.368ZM100.175 17.6855C99.726 18.4339 99.5342 19.4459 99.4893 20.5928L101.488 20.6712C101.528 19.6421 101.699 19.0328 101.89 18.7145L100.175 17.6855ZM100.489 21.632H104.393V19.632H100.489V21.632ZM105.393 20.632C105.393 19.4164 105.295 18.376 104.983 17.6902L103.162 18.5178C103.277 18.7707 103.393 19.4156 103.393 20.632H105.393ZM116.748 27.448L115.781 27.7004L115.786 27.7199L115.792 27.7392L116.748 27.448ZM117.804 29.208L118.397 30.0132L119.242 29.3914L118.58 28.5774L117.804 29.208ZM114.284 31.8L113.556 32.4854L114.164 33.1308L114.877 32.6052L114.284 31.8ZM112.172 28.952L111.256 29.3516L111.262 29.3659L111.269 29.3801L112.172 28.952ZM111.628 7.384L111.519 6.39004L110.628 6.48831V7.384H111.628ZM116.556 6.84H117.556V5.72353L116.447 5.84604L116.556 6.84ZM115.556 25.144C115.556 26.2044 115.619 27.0796 115.781 27.7004L117.716 27.1956C117.622 26.8351 117.556 26.1742 117.556 25.144H115.556ZM115.792 27.7392C115.996 28.4117 116.442 29.117 117.028 29.8386L118.58 28.5774C118.057 27.9337 117.799 27.4656 117.705 27.1568L115.792 27.7392ZM117.211 28.4028L113.691 30.9948L114.877 32.6052L118.397 30.0132L117.211 28.4028ZM115.012 31.1146C114.019 30.0592 113.395 29.1982 113.076 28.5239L111.269 29.3801C111.717 30.3272 112.501 31.3648 113.556 32.4854L115.012 31.1146ZM113.089 28.5524C112.809 27.9106 112.628 26.8386 112.628 25.24H110.628C110.628 26.9267 110.81 28.3294 111.256 29.3516L113.089 28.5524ZM112.628 25.24V7.384H110.628V25.24H112.628ZM111.738 8.37796L116.666 7.83396L116.447 5.84604L111.519 6.39004L111.738 8.37796ZM115.556 6.84V25.144H117.556V6.84H115.556ZM126.894 8.344V7.344H125.894V8.344H126.894ZM141.134 10.424L141.924 9.811L141.92 9.80512L141.915 9.7993L141.134 10.424ZM140.814 20.376L140.028 19.7581L140.019 19.7693L140.814 20.376ZM137.998 22.328L138.353 23.263L138.361 23.2597L137.998 22.328ZM132.142 23.032V22.032H131.142V23.032H132.142ZM132.142 31V32H133.142V31H132.142ZM126.894 31H125.894V32H126.894V31ZM132.142 11.928V10.928H131.142V11.928H132.142ZM132.142 19.256H131.142V20.256H132.142V19.256ZM136.206 18.392L135.445 17.7435L135.438 17.7519L135.431 17.7603L136.206 18.392ZM126.894 9.344H135.086V7.344H126.894V9.344ZM135.086 9.344C137.898 9.344 139.528 10.0175 140.353 11.0487L141.915 9.7993C140.521 8.0572 138.119 7.344 135.086 7.344V9.344ZM140.344 11.037C141.139 12.0622 141.574 13.4105 141.574 15.16H143.574C143.574 13.0695 143.049 11.2604 141.924 9.811L140.344 11.037ZM141.574 15.16C141.574 16.9307 141.056 18.4493 140.028 19.7582L141.6 20.9938C142.919 19.316 143.574 17.3573 143.574 15.16H141.574ZM140.019 19.7693C139.542 20.394 138.777 20.9512 137.635 21.3963L138.361 23.2597C139.737 22.7235 140.848 21.9794 141.609 20.9827L140.019 19.7693ZM137.643 21.393C136.549 21.808 135.183 22.032 133.518 22.032V24.032C135.352 24.032 136.972 23.7867 138.353 23.263L137.643 21.393ZM133.518 22.032H132.142V24.032H133.518V22.032ZM131.142 23.032V31H133.142V23.032H131.142ZM132.142 30H126.894V32H132.142V30ZM127.894 31V8.344H125.894V31H127.894ZM131.142 11.928V19.256H133.142V11.928H131.142ZM132.142 20.256H133.87V18.256H132.142V20.256ZM133.87 20.256C135.115 20.256 136.247 19.9252 136.981 19.0237L135.431 17.7603C135.227 18.0108 134.801 18.256 133.87 18.256V20.256ZM136.967 19.0405C137.684 18.1994 137.942 17.0063 137.942 15.672H135.942C135.942 16.8124 135.71 17.4326 135.445 17.7435L136.967 19.0405ZM137.942 15.672C137.942 14.3401 137.734 13.1678 137.17 12.308L135.498 13.404C135.745 13.7816 135.942 14.4866 135.942 15.672H137.942ZM137.17 12.308C136.482 11.2578 135.215 10.928 133.87 10.928V12.928C135 12.928 135.375 13.2169 135.498 13.404L137.17 12.308ZM133.87 10.928H132.142V12.928H133.87V10.928ZM155.249 14.104L154.866 15.0277L154.866 15.0277L155.249 14.104ZM157.297 15.512L156.536 16.1605L156.549 16.1756L156.562 16.1903L157.297 15.512ZM158.513 17.592L157.572 17.9299L157.572 17.9302L158.513 17.592ZM156.689 29.56L156.01 28.8259L156.007 28.8293L156.689 29.56ZM148.241 30.84L147.858 31.7637L147.858 31.7637L148.241 30.84ZM146.161 29.464L145.4 30.1125L145.413 30.1276L145.426 30.1423L146.161 29.464ZM144.945 27.352L144.008 27.6998L144.012 27.711L144.945 27.352ZM145.329 17.368L146.216 17.831L146.219 17.8242L145.329 17.368ZM153.585 18.52L152.653 18.8825L152.657 18.8914L153.585 18.52ZM149.809 18.456L148.875 18.0989L148.871 18.111L148.866 18.1232L149.809 18.456ZM149.873 26.456L148.941 26.8185L148.945 26.8274L149.873 26.456ZM153.649 26.52L154.589 26.8618L154.592 26.8528L153.649 26.52ZM152.177 14.56C153.25 14.56 154.138 14.7259 154.866 15.0277L155.632 13.1803C154.611 12.7568 153.452 12.56 152.177 12.56V14.56ZM154.866 15.0277C155.631 15.3447 156.17 15.7313 156.536 16.1605L158.058 14.8635C157.443 14.1407 156.617 13.5886 155.632 13.1803L154.866 15.0277ZM156.562 16.1903C156.969 16.6311 157.311 17.2027 157.572 17.9299L159.454 17.2541C159.118 16.3173 158.649 15.5022 158.032 14.8337L156.562 16.1903ZM157.572 17.9302C158.012 19.1553 158.249 20.7079 158.249 22.616H160.249C160.249 20.5561 159.995 18.7594 159.454 17.2538L157.572 17.9302ZM158.249 22.616C158.249 25.4795 157.454 27.4908 156.01 28.8259L157.368 30.2941C159.338 28.4719 160.249 25.8539 160.249 22.616H158.249ZM156.007 28.8293C154.938 29.8276 153.416 30.384 151.313 30.384V32.384C153.775 32.384 155.838 31.7244 157.372 30.2907L156.007 28.8293ZM151.313 30.384C150.241 30.384 149.352 30.2181 148.624 29.9163L147.858 31.7637C148.88 32.1872 150.039 32.384 151.313 32.384V30.384ZM148.624 29.9163C147.85 29.5953 147.288 29.2106 146.896 28.7857L145.426 30.1423C146.058 30.8267 146.883 31.3593 147.858 31.7637L148.624 29.9163ZM146.922 28.8155C146.517 28.3394 146.165 27.7378 145.879 26.993L144.012 27.711C144.365 28.6302 144.824 29.4366 145.4 30.1125L146.922 28.8155ZM145.883 27.0042C145.447 25.83 145.209 24.2834 145.209 22.328H143.209C143.209 24.4259 143.462 26.2287 144.008 27.6998L145.883 27.0042ZM145.209 22.328C145.209 20.5854 145.555 19.0956 146.216 17.831L144.443 16.905C143.61 18.499 143.209 20.3159 143.209 22.328H145.209ZM146.219 17.8242C146.788 16.714 147.551 15.9156 148.503 15.386C149.463 14.8521 150.673 14.56 152.177 14.56V12.56C150.417 12.56 148.854 12.9025 147.531 13.638C146.201 14.3778 145.172 15.4833 144.439 16.9118L146.219 17.8242ZM155.033 22.552C155.033 20.6137 154.891 19.0929 154.514 18.1486L152.657 18.8914C152.876 19.4404 153.033 20.6076 153.033 22.552H155.033ZM154.517 18.1576C154.296 17.5896 153.926 17.1166 153.396 16.7985C152.879 16.4883 152.282 16.368 151.665 16.368V18.368C152.03 18.368 152.244 18.4397 152.367 18.5135C152.477 18.5794 152.575 18.6824 152.653 18.8824L154.517 18.1576ZM151.665 16.368C151.066 16.368 150.482 16.4806 149.976 16.7773C149.453 17.0834 149.088 17.5427 148.875 18.0989L150.743 18.8131C150.808 18.644 150.89 18.5593 150.987 18.5027C151.099 18.4367 151.305 18.368 151.665 18.368V16.368ZM148.866 18.1232C148.547 19.0287 148.425 20.5107 148.425 22.424H150.425C150.425 20.4973 150.56 19.3339 150.752 18.7888L148.866 18.1232ZM148.425 22.424C148.425 24.3464 148.568 25.8593 148.941 26.8184L150.805 26.0936C150.581 25.5167 150.425 24.3416 150.425 22.424H148.425ZM148.945 26.8274C149.169 27.3888 149.544 27.8511 150.073 28.1598C150.588 28.4601 151.181 28.576 151.793 28.576V26.576C151.424 26.576 151.206 26.5053 151.081 26.4322C150.97 26.3676 150.876 26.2699 150.802 26.0846L148.945 26.8274ZM151.793 28.576C152.395 28.576 152.981 28.4693 153.488 28.1812C154.015 27.8813 154.385 27.4241 154.589 26.8617L152.709 26.1783C152.658 26.3199 152.59 26.3907 152.499 26.4428C152.387 26.5067 152.173 26.576 151.793 26.576V28.576ZM154.592 26.8528C154.912 25.9473 155.033 24.4653 155.033 22.552H153.033C153.033 24.4787 152.899 25.6421 152.706 26.1872L154.592 26.8528ZM165.82 17.24V18.24H166.576L166.782 17.5123L165.82 17.24ZM167.42 14.552L168.083 15.3006L168.083 15.3006L167.42 14.552ZM172.732 14.168L173.692 14.4459L173.923 13.646L173.179 13.2736L172.732 14.168ZM171.612 18.04L171.333 19.0003L172.294 19.2794L172.572 18.3179L171.612 18.04ZM167.644 18.68L166.972 17.939L166.966 17.9443L166.96 17.9497L167.644 18.68ZM166.652 31V32H167.652V31H166.652ZM161.756 31H160.756V32H161.756V31ZM161.756 18.936H162.756V18.8989L162.753 18.8619L161.756 18.936ZM161.404 14.2L161.275 13.2083L160.336 13.3297L160.406 14.2741L161.404 14.2ZM165.116 13.72L166.102 13.5585L165.946 12.6043L164.987 12.7283L165.116 13.72ZM165.692 17.24L164.705 17.4015L164.842 18.24H165.692V17.24ZM166.782 17.5123C167.059 16.5324 167.503 15.8139 168.083 15.3006L166.756 13.8034C165.843 14.6128 165.22 15.6862 164.857 16.9677L166.782 17.5123ZM168.083 15.3006C168.65 14.7983 169.279 14.56 170.012 14.56V12.56C168.781 12.56 167.683 12.983 166.756 13.8034L168.083 15.3006ZM170.012 14.56C170.876 14.56 171.627 14.7336 172.284 15.0624L173.179 13.2736C172.215 12.7917 171.153 12.56 170.012 12.56V14.56ZM171.771 13.8901L170.651 17.7621L172.572 18.3179L173.692 14.4459L171.771 13.8901ZM171.89 17.0797C171.176 16.8724 170.512 16.752 169.916 16.752V18.752C170.258 18.752 170.724 18.8236 171.333 19.0003L171.89 17.0797ZM169.916 16.752C168.808 16.752 167.817 17.173 166.972 17.939L168.315 19.421C168.835 18.9497 169.359 18.752 169.916 18.752V16.752ZM166.96 17.9497C166.038 18.8126 165.652 20.0211 165.652 21.4H167.652C167.652 20.3895 167.926 19.7847 168.327 19.4103L166.96 17.9497ZM165.652 21.4V31H167.652V21.4H165.652ZM166.652 30H161.756V32H166.652V30ZM162.756 31V18.936H160.756V31H162.756ZM162.753 18.8619L162.401 14.1259L160.406 14.2741L160.758 19.0101L162.753 18.8619ZM161.532 15.1917L165.244 14.7117L164.987 12.7283L161.275 13.2083L161.532 15.1917ZM164.129 13.8815L164.705 17.4015L166.678 17.0785L166.102 13.5585L164.129 13.8815ZM165.692 18.24H165.82V16.24H165.692V18.24ZM179.639 13.816H178.639V14.816H179.639V13.816ZM183.959 13.816L184.946 13.9761L185.134 12.816H183.959V13.816ZM183.383 17.368V18.368H184.234L184.37 17.5281L183.383 17.368ZM179.639 17.368V16.368H178.639V17.368H179.639ZM180.087 26.968L179.268 27.5415L179.268 27.5415L180.087 26.968ZM183.447 27.288L184.404 26.9977L184.132 26.102L183.22 26.314L183.447 27.288ZM184.311 30.136L184.931 30.9209L185.466 30.4983L185.268 29.8457L184.311 30.136ZM182.327 31L182.058 30.0368L182.052 30.0385L182.327 31ZM175.703 29.784L174.841 30.291L174.847 30.301L174.853 30.3109L175.703 29.784ZM174.743 17.368H175.743V16.368H174.743V17.368ZM172.279 17.368L171.289 17.2294L171.129 18.368H172.279V17.368ZM172.727 14.168L172.592 13.1772L171.842 13.2795L171.737 14.0294L172.727 14.168ZM174.839 13.88L174.974 14.8708L175.788 14.7598L175.837 13.9399L174.839 13.88ZM175.031 10.68L174.745 9.72181L174.075 9.92193L174.033 10.6201L175.031 10.68ZM179.639 9.304H180.639V7.96176L179.353 8.34581L179.639 9.304ZM179.639 14.816H183.959V12.816H179.639V14.816ZM182.972 13.6559L182.396 17.2079L184.37 17.5281L184.946 13.9761L182.972 13.6559ZM183.383 16.368H179.639V18.368H183.383V16.368ZM178.639 17.368V24.696H180.639V17.368H178.639ZM178.639 24.696C178.639 25.8076 178.778 26.8424 179.268 27.5415L180.906 26.3945C180.798 26.2402 180.639 25.7604 180.639 24.696H178.639ZM179.268 27.5415C179.821 28.3317 180.71 28.608 181.623 28.608V26.608C181.086 26.608 180.95 26.4576 180.906 26.3945L179.268 27.5415ZM181.623 28.608C182.057 28.608 182.78 28.4699 183.674 28.262L183.22 26.314C182.28 26.5328 181.786 26.608 181.623 26.608V28.608ZM182.49 27.5783L183.354 30.4263L185.268 29.8457L184.404 26.9977L182.49 27.5783ZM183.691 29.3511C183.444 29.5463 182.937 29.7915 182.058 30.0368L182.596 31.9632C183.551 31.6965 184.367 31.3657 184.931 30.9209L183.691 29.3511ZM182.052 30.0385C181.225 30.275 180.497 30.384 179.863 30.384V32.384C180.722 32.384 181.637 32.237 182.602 31.9615L182.052 30.0385ZM179.863 30.384C177.856 30.384 176.933 29.8707 176.553 29.2571L174.853 30.3109C175.795 31.8306 177.646 32.384 179.863 32.384V30.384ZM176.565 29.277C176.067 28.4297 175.743 26.8864 175.743 24.472H173.743C173.743 26.9642 174.059 28.9623 174.841 30.291L176.565 29.277ZM175.743 24.472V17.368H173.743V24.472H175.743ZM174.743 16.368H172.279V18.368H174.743V16.368ZM173.269 17.5066L173.717 14.3066L171.737 14.0294L171.289 17.2294L173.269 17.5066ZM172.862 15.1588L174.974 14.8708L174.704 12.8892L172.592 13.1772L172.862 15.1588ZM175.837 13.9399L176.029 10.7399L174.033 10.6201L173.841 13.8201L175.837 13.9399ZM175.317 11.6382L179.925 10.2622L179.353 8.34581L174.745 9.72181L175.317 11.6382ZM178.639 9.304V13.816H180.639V9.304H178.639ZM192.886 17.816L192.134 18.4745L192.144 18.4866L192.155 18.4983L192.886 17.816ZM186.934 18.232L186.025 18.648L186.392 19.4513L187.235 19.1857L186.934 18.232ZM185.558 15.224L185.07 14.3511L184.265 14.8011L184.649 15.64L185.558 15.224ZM188.566 14.104L188.824 15.0703L188.835 15.0673L188.566 14.104ZM195.51 14.008L195.172 14.9492L195.18 14.9519L195.51 14.008ZM197.334 15.352L196.479 15.871L196.49 15.8891L196.502 15.9067L197.334 15.352ZM198.07 17.08L197.087 17.2621L197.09 17.2796L197.094 17.2969L198.07 17.08ZM198.486 27.192L197.53 27.4832L197.535 27.502L197.542 27.5205L198.486 27.192ZM199.542 28.792L200.224 29.5239L200.954 28.8443L200.276 28.1126L199.542 28.792ZM196.758 31.384L196.327 32.2861L196.941 32.58L197.44 32.1159L196.758 31.384ZM195.318 30.328L194.595 31.0185L194.603 31.0269L194.611 31.0351L195.318 30.328ZM194.326 29.016L195.211 28.5503L194.93 28.016H194.326V29.016ZM194.198 29.016V28.016H193.711L193.411 28.3991L194.198 29.016ZM186.326 22.84L185.68 22.0772L185.671 22.0843L186.326 22.84ZM190.55 21.112L190.38 20.1265L190.378 20.1269L190.55 21.112ZM193.334 20.632L193.504 21.6175L194.334 21.4743V20.632H193.334ZM193.366 26.776L194.073 27.4831L194.366 27.1902V26.776H193.366ZM193.366 23.768H194.366V22.6175L193.227 22.7777L193.366 23.768ZM190.422 24.568L190.894 25.4495L190.907 25.443L190.918 25.4362L190.422 24.568ZM194.334 19.352C194.334 18.5412 194.168 17.7236 193.617 17.1337L192.155 18.4983C192.202 18.5484 192.334 18.7548 192.334 19.352H194.334ZM193.639 17.1575C193.038 16.4707 192.068 16.304 191.158 16.304V18.304C191.526 18.304 191.78 18.3416 191.946 18.3908C192.11 18.4394 192.143 18.4855 192.134 18.4745L193.639 17.1575ZM191.158 16.304C190.135 16.304 188.595 16.66 186.634 17.2783L187.235 19.1857C189.199 18.5666 190.475 18.304 191.158 18.304V16.304ZM187.844 17.816L186.468 14.808L184.649 15.64L186.025 18.648L187.844 17.816ZM186.046 16.0969C186.669 15.7488 187.583 15.4012 188.824 15.0702L188.309 13.1378C186.99 13.4895 185.898 13.8885 185.07 14.3511L186.046 16.0969ZM188.835 15.0673C190.057 14.7268 191.236 14.56 192.374 14.56V12.56C191.038 12.56 189.679 12.7559 188.298 13.1407L188.835 15.0673ZM192.374 14.56C193.563 14.56 194.484 14.7021 195.172 14.9492L195.848 13.0668C194.872 12.7165 193.703 12.56 192.374 12.56V14.56ZM195.18 14.9519C195.88 15.1968 196.269 15.5237 196.479 15.871L198.189 14.833C197.675 13.9856 196.847 13.4165 195.841 13.0641L195.18 14.9519ZM196.502 15.9067C196.825 16.3902 197.009 16.8412 197.087 17.2621L199.054 16.8979C198.918 16.1668 198.612 15.4658 198.166 14.7973L196.502 15.9067ZM197.094 17.2969C197.201 17.7765 197.262 18.4229 197.262 19.256H199.262C199.262 18.3398 199.196 17.5355 199.046 16.8631L197.094 17.2969ZM197.262 19.256V25.272H199.262V19.256H197.262ZM197.262 25.272C197.262 26.1129 197.34 26.8617 197.53 27.4832L199.443 26.9008C199.333 26.541 199.262 26.0098 199.262 25.272H197.262ZM197.542 27.5205C197.775 28.1906 198.225 28.841 198.808 29.4714L200.276 28.1126C199.793 27.591 199.539 27.1748 199.431 26.8635L197.542 27.5205ZM198.861 28.0601L196.077 30.6521L197.44 32.1159L200.224 29.5239L198.861 28.0601ZM197.19 30.4819C196.821 30.3055 196.432 30.0271 196.025 29.6209L194.611 31.0351C195.144 31.5675 195.714 31.9931 196.327 32.2861L197.19 30.4819ZM196.042 29.6375C195.633 29.2098 195.368 28.8473 195.211 28.5503L193.441 29.4817C193.712 29.9953 194.107 30.5076 194.595 31.0185L196.042 29.6375ZM194.326 28.016H194.198V30.016H194.326V28.016ZM193.411 28.3991C192.351 29.7517 191.066 30.384 189.494 30.384V32.384C191.72 32.384 193.571 31.4376 194.985 29.6329L193.411 28.3991ZM189.494 30.384C188.121 30.384 187.273 30.0307 186.757 29.4971C186.235 28.9571 185.886 28.0596 185.886 26.616H183.886C183.886 28.3511 184.305 29.8376 185.319 30.8869C186.339 31.9426 187.795 32.384 189.494 32.384V30.384ZM185.886 26.616C185.886 25.1203 186.306 24.1806 186.981 23.5957L185.671 22.0843C184.426 23.1634 183.886 24.741 183.886 26.616H185.886ZM186.973 23.6028C187.771 22.9261 188.989 22.3994 190.722 22.0971L190.378 20.1269C188.442 20.4646 186.844 21.0899 185.68 22.0772L186.973 23.6028ZM190.72 22.0975L193.504 21.6175L193.164 19.6465L190.38 20.1265L190.72 22.0975ZM194.334 20.632V19.352H192.334V20.632H194.334ZM188.526 26.104C188.526 26.7965 188.713 27.4955 189.256 28.0078C189.789 28.5095 190.496 28.672 191.19 28.672V26.672C190.775 26.672 190.65 26.5731 190.628 26.5522C190.617 26.5418 190.526 26.4568 190.526 26.104H188.526ZM191.19 28.672C192.306 28.672 193.286 28.2701 194.073 27.4831L192.659 26.0689C192.251 26.4766 191.781 26.672 191.19 26.672V28.672ZM194.366 26.776V23.768H192.366V26.776H194.366ZM193.227 22.7777C191.837 22.9733 190.696 23.2595 189.926 23.6998L190.918 25.4362C191.343 25.1938 192.165 24.9467 193.506 24.7583L193.227 22.7777ZM189.95 23.6865C189.512 23.921 189.142 24.2506 188.886 24.6881C188.632 25.1235 188.526 25.6083 188.526 26.104H190.526C190.526 25.8957 190.569 25.7725 190.614 25.6959C190.657 25.6214 190.735 25.535 190.894 25.4495L189.95 23.6865ZM206.405 27.448L205.437 27.7004L205.442 27.7199L205.448 27.7392L206.405 27.448ZM207.461 29.208L208.053 30.0132L208.898 29.3914L208.237 28.5774L207.461 29.208ZM203.941 31.8L203.212 32.4854L203.82 33.1308L204.533 32.6052L203.941 31.8ZM201.829 28.952L200.912 29.3516L200.918 29.3659L200.925 29.3801L201.829 28.952ZM201.285 7.384L201.175 6.39004L200.285 6.48831V7.384H201.285ZM206.213 6.84H207.213V5.72353L206.103 5.84604L206.213 6.84ZM205.213 25.144C205.213 26.2044 205.275 27.0796 205.437 27.7004L207.372 27.1956C207.278 26.8351 207.213 26.1742 207.213 25.144H205.213ZM205.448 27.7392C205.653 28.4117 206.098 29.117 206.684 29.8386L208.237 28.5774C207.714 27.9337 207.455 27.4656 207.361 27.1568L205.448 27.7392ZM206.868 28.4028L203.348 30.9948L204.533 32.6052L208.053 30.0132L206.868 28.4028ZM204.669 31.1146C203.675 30.0592 203.052 29.1982 202.732 28.5239L200.925 29.3801C201.373 30.3272 202.158 31.3648 203.212 32.4854L204.669 31.1146ZM202.745 28.5524C202.465 27.9106 202.285 26.8386 202.285 25.24H200.285C200.285 26.9267 200.466 28.3294 200.912 29.3516L202.745 28.5524ZM202.285 25.24V7.384H200.285V25.24H202.285ZM201.394 8.37796L206.322 7.83396L206.103 5.84604L201.175 6.39004L201.394 8.37796ZM205.213 6.84V25.144H207.213V6.84H205.213Z" fill="black" fill-opacity="0.2"/>
</svg>
